<svg width="870" height="352" viewBox="0 0 870 352" fill="none" xmlns="http://www.w3.org/2000/svg">
<path fill-rule="evenodd" clip-rule="evenodd" d="M414.456 146.002C459.8 127.003 514.575 150.396 532.413 196.071C544.186 226.215 541.032 246.463 529.023 275.438C544.803 275.34 560.563 276.213 576.354 276.48C601.408 276.902 626.495 278.066 651.556 278.004C653.372 278.341 655.193 278.655 657.017 278.946C612.726 280.884 568.18 281.784 523.863 283.931C514.617 300.275 495.963 311.856 481.645 323.785C470.695 332.908 459.722 342.011 448.794 351.172C441.674 343.035 433.098 334.436 424.51 327.904C403.852 312.193 389.074 305.346 373.068 283.83C346.68 283.41 320.294 282.831 293.913 282.094C279.006 281.57 262.482 280.11 247.899 279.96L250.5 278.944C289.662 277.627 328.992 275.536 368.151 274.915C366.992 272.569 365.903 270.188 364.884 267.778C355.189 245.17 355.642 219.33 364.828 196.636C373.872 173.76 391.766 155.503 414.456 146.002ZM532.484 242.442C539.527 190.224 494.561 141.918 442.106 147.137C438.257 147.61 434.689 148.106 430.878 148.831C387.573 157.073 359.357 201.519 364.979 244.281C368.096 266.598 379.896 286.786 397.813 300.45C407.833 308.064 418.614 314.919 428.587 322.56C435.579 327.915 442.668 334.994 448.891 341.288L453.059 338.198L484.795 312.909C510.882 292.094 527.707 277.855 532.484 242.442Z" fill="#F3D096"/>
<path d="M411.3 266C405.633 266 400.633 265.467 396.3 264.4C392.033 263.333 388.933 262.3 387 261.3L389 248V245C390.2 246.4 391.833 247.9 393.9 249.5C395.967 251.033 398.333 252.333 401 253.4C403.733 254.467 406.567 255 409.5 255C412.433 255 414.633 254.167 416.1 252.5C417.633 250.833 418.4 248 418.4 244V211C418.4 208.867 418.167 207.367 417.7 206.5C417.233 205.567 416.767 205.067 416.3 205H435.9C435.433 205 434.967 205.467 434.5 206.4C434.033 207.333 433.8 208.9 433.8 211.1V244C433.8 249.867 432.867 254.4 431 257.6C429.2 260.733 426.6 262.933 423.2 264.2C419.867 265.4 415.9 266 411.3 266Z" fill="black"/>
<path d="M478.378 266C466.911 266 458.311 263.533 452.578 258.6C446.911 253.6 444.078 245.733 444.078 235C444.078 228.8 445.245 223.4 447.578 218.8C449.911 214.133 453.611 210.5 458.678 207.9C463.745 205.3 470.311 204 478.378 204C484.711 204 489.978 204.333 494.178 205C498.378 205.667 501.211 206.333 502.678 207V210L504.678 221C503.411 220.133 501.511 219.233 498.978 218.3C496.511 217.367 493.545 216.6 490.078 216C486.611 215.333 482.778 215 478.578 215C473.978 215 470.245 215.733 467.378 217.2C464.578 218.667 462.511 220.9 461.178 223.9C459.911 226.833 459.278 230.533 459.278 235C459.278 239.467 459.911 243.167 461.178 246.1C462.511 249.033 464.778 251.233 467.978 252.7C471.245 254.167 475.745 254.9 481.478 254.9C487.211 254.9 491.978 254.1 495.778 252.5C499.645 250.9 502.278 249.367 503.678 247.9V250.9L504.678 261C503.545 262.067 500.778 263.167 496.378 264.3C492.045 265.433 486.045 266 478.378 266Z" fill="black"/>
<path d="M574.164 76.7759C605.558 68.9659 634.611 63.3549 666.198 56.7479L774.671 32.9779C801.345 26.8729 833.562 20.5909 859.083 11.3069C850.937 18.4469 842.284 22.6309 832.976 27.7899C814.178 38.2099 798.051 43.4289 777.151 48.0229L748.084 54.3939C718.224 60.6029 688.412 67.0429 658.651 73.7119C651.791 75.2089 596.744 86.4409 595.189 87.4569C600.839 86.3439 608.965 86.0159 614.929 85.5699C622.191 85.0289 629.439 84.3129 636.666 83.4219L713.231 74.2779C753.242 69.4069 777.79 67.4899 815.887 54.7209C782.193 86.6799 736.312 87.3099 693.011 91.9569C671.884 94.1929 650.728 96.1449 629.548 97.8139C616.597 98.9389 603.27 100.532 590.338 101.079C592.528 102.443 596.15 101.827 599.028 102.392C631.317 102.554 663.225 103.256 695.564 102.626C733.025 101.896 757.268 104.531 792.048 86.8329C789.758 90.0529 786.785 92.2909 783.905 94.9129C753.693 122.421 711.923 118.655 674.113 117.365L625.869 116.036L595.251 115.158C590.483 115.031 582.932 115.157 578.432 114.445L578.185 115.175C600.617 119.325 625.89 122.559 648.644 125.596C670.129 128.463 704.017 133.477 725.203 132.199C738.419 131.506 751.388 128.341 763.437 122.868C745.484 139.332 728.945 146.651 703.957 145.315C670.646 143.532 636.618 136.316 603.669 131.273C598.843 130.534 581.942 127.258 578.316 127.188C573.288 126.167 568.611 125.191 563.51 124.516C566.563 125.617 577.565 129.498 580.459 129.802C596.906 135.542 614.911 140.422 631.804 144.92C656.592 151.52 681.782 159.684 707.702 158.886C717.267 158.592 723.441 156.62 732.168 153.262C714.467 167.001 699.121 172.188 676.31 168.763C655.93 165.704 628.81 157.511 608.852 150.893C596.685 147.409 584.605 143.66 572.519 139.922C569.236 138.907 559.451 134.933 557.172 134.543C562.328 138.049 571.174 140.938 576.73 143.784C588.609 149.867 599.457 155.582 611.744 160.895C628.37 170.051 662.315 181.505 680.929 183.094C686.162 183.54 691.38 182.771 696.554 181.973C664.962 202.888 632.54 183.493 603.114 169.234C585.13 160.6 567.203 151.845 549.336 142.971C556.586 148.518 565.993 154.782 573.654 160.264C598.176 177.814 626.951 202.103 657.949 204.188C638.358 212.372 628.91 210.575 610.445 199.853C597.566 192.375 586.614 183.528 574.768 174.584C566.675 168.476 558.424 162.579 550.026 156.897C547.149 154.714 544.061 152.275 541.125 150.222C543.755 153.068 546.179 155.64 548.946 158.348C556.029 165.487 563.2 172.631 570.158 179.852C582.154 192.301 601.171 212.99 616.551 220.854C614.971 221.035 613.389 221.189 611.804 221.317C603.862 221.915 599.81 220.939 593.265 216.266C575.223 203.383 562.463 184.857 546.292 169.927C544.258 168.05 539.188 162.626 537.29 161.667L537.483 161.611C537.529 161.803 548.788 176.051 550.21 178.011C562.837 195.413 571.235 216.882 585.384 232.934C581.418 232.507 573.545 231.573 570.728 228.767C561.824 219.898 555.687 204.573 548.884 193.897C544.53 187.063 542.682 183.99 537.728 177.99C538.826 181.229 542.292 186.314 544.186 189.4C550.338 199.428 556.096 211.16 557.182 223.026C558.108 233.144 555.74 237.675 549.621 245.032L549.974 236.437C551.058 205.897 539.236 181.119 518.689 159.04C531.885 141.22 544.111 119.156 556.945 100.849C561.825 93.8869 568.309 82.5159 574.164 76.7759Z" fill="#F3D096"/>
<path d="M35.4326 13.3499C66.2123 24.7729 98.1163 29.5268 130.098 36.5038C176.245 46.5718 223.379 55.0948 269.364 65.6418L300.913 72.8028C307.784 74.3478 319.444 76.8428 325.885 79.4328C330.003 84.7348 335.52 93.9098 339.301 99.8458L362.077 135.799C365.853 141.781 373.181 154.196 378.195 158.486C356.865 185.405 346.658 206.539 346.361 241.8C342.57 237.919 338.124 233.494 338.725 227.521C340.064 214.216 345.987 198.179 352.075 186.319C353.582 183.383 358.24 175.154 358.708 172.666L358.627 173.309L357.997 173.06C351.272 183.447 345.095 194.608 338.826 205.28C334.463 212.708 330.927 220.786 325.37 227.444C322.179 231.254 317.239 231.177 312.765 231.224C323.69 214.379 332.265 196.452 343.386 179.763C345.593 176.419 347.933 173.165 350.401 170.009C351.957 168.041 358.459 160.913 358.987 159.458C355.927 161.49 351.753 166.76 348.51 169.899C333.596 184.337 318.157 207.375 300.902 218.018C296.648 220.643 285.537 220.755 281.069 220.809C287.522 216.634 293.519 212.211 299.26 207.085C304.171 202.701 351.768 154.142 352.028 153.333C352.094 153.295 352.159 153.256 352.225 153.218L352.097 153.7L352.337 153.378C350.38 154.05 339.945 162.542 336.793 164.694C315.88 178.977 291.125 201.896 266.351 207.957C259.195 209.708 248.468 207.312 241.874 205.351C261.698 202.84 274.683 193.808 291.081 183.201C305.14 174.162 318.916 164.691 332.39 154.8C335.517 152.539 343.185 147.623 345.45 145.466L344.549 145.662L344.702 146.205L344.183 145.818C336.961 149.469 330.048 153.509 322.857 157.151C308.772 164.156 294.554 170.89 280.21 177.348C269.6 182.159 259.638 187.184 248.258 190.027C230.886 194.367 221.249 192.632 205.951 184.202C212.255 183.966 224.069 183.655 229.928 182.263C253.212 176.731 276.959 166.16 298.549 155.913C304.034 153.31 311.416 150.062 316.563 147.309C322.26 144.688 336.332 138.532 340.654 135.36C332.145 138.644 323.552 141.707 314.884 144.545C287.009 153.238 259.3 162.51 230.534 168.183C207.343 172.757 190.742 169.078 171.36 155.802C178.443 156.957 186.274 158.813 193.478 158.766C224.321 158.566 265.628 147.502 294.961 137.909C306.417 135.132 324.947 128.686 336.934 124.967C330.242 125.906 322.579 127.938 315.832 129.151C307.194 130.703 298.4 131.923 289.814 133.575C283.064 133.698 270.491 136.961 263.191 137.976C221.646 143.754 171.652 157.853 139.126 122.664C146.439 125.529 154.783 129.923 162.577 130.954C189.605 134.372 217.619 130.708 244.506 127.194C270.33 123.819 297.487 120.393 323.066 115.576C320.479 114.892 312.801 115.507 309.808 115.588C264.692 116.796 218.963 121.3 173.887 117.917C153.96 116.422 132.989 108.898 117.435 96.4158C113.158 92.9828 108.262 89.5338 104.779 85.2378C114.605 89.3228 121.494 94.1608 132.555 96.9598C152.084 101.901 171.269 102.121 191.229 102.945C228.775 104.495 265.685 103.767 303.219 102.901C306.51 103.206 317.268 103.143 320.065 102.307C316.038 101.918 312.196 101.506 308.142 101.424C272.147 98.7798 236.197 95.5558 200.306 91.7538C158.502 87.0888 112.369 83.3108 79.4883 53.5438C85.8753 54.8278 93.2593 58.2008 99.6113 60.2368C129.212 69.7228 160.961 71.7088 191.611 75.7658C223.293 79.9598 254.942 83.3428 286.745 86.3228C290.308 86.6428 305.32 88.6068 307.387 88.1828C302.157 86.3408 287.542 84.2198 281.707 82.8648C274.001 81.0768 265.704 79.4689 257.91 77.9789L162.724 59.3969C130.96 53.0099 98.2483 46.7928 68.1883 34.0528C54.7483 28.3568 46.5363 22.3509 35.4326 13.3499Z" fill="#F3D096"/>
<path d="M0 0.00089383C2.9077 -0.0461062 13.5862 1.77392 16.5979 2.27592L49.3973 7.96192C93.4953 15.5439 137.547 23.3849 181.552 31.4849L284.099 49.3249C299.007 51.9519 322.395 55.4609 336.635 59.2379C350.788 81.8169 363.83 106.696 377.854 129.45C379.46 132.057 387.884 145.717 388.538 147.93C388.205 150.058 388.631 149.089 386.901 150.782L383.565 153.075C376.424 141.813 369.401 129.178 362.49 117.672C352.293 100.695 342.137 83.6099 332.706 66.2029C310.472 61.7099 287.284 58.2639 264.804 53.9519C204.608 42.5549 144.532 30.5349 84.5853 17.8929L31.1213 6.9499C22.7172 5.2489 7.5722 2.62789 0 0.00089383Z" fill="#F3D096"/>
<path d="M565.111 55.8899C572.374 53.9989 588.622 51.7519 596.698 50.4049C616.609 47.1809 636.479 43.7059 656.303 39.9799C681.797 35.2169 706.993 29.2159 732.542 24.6819C754.445 20.7959 776.558 17.6739 798.48 13.8929C822.231 9.79588 845.442 5.40787 869.28 1.68787L869.561 2.71487C795.241 16.7079 721.928 34.3219 647.797 48.9099C622.407 53.9059 593.267 61.2199 568.004 64.6189C563.11 72.5919 557.848 80.2259 552.812 88.0959L511.816 152.584L506.63 148.25C520.764 126.735 534.273 104.388 548.274 82.7789C551.759 77.3999 562.08 59.3779 565.111 55.8899Z" fill="#F3D096"/>
</svg>
