<svg width="542" height="307" viewBox="0 0 542 307" fill="none" xmlns="http://www.w3.org/2000/svg">
<path d="M48.1863 158.756C44.1139 155.735 39.8698 151.618 36.4325 148.095C19.4075 130.866 9.44419 109.895 7.89019 88.0145C5.44419 56.6245 20.5168 23.4895 46.6391 0C26.9377 28.9977 22.4074 58.2191 33.7624 90.2109C48.3854 131.41 92.1852 160.078 136.509 181.36C150.84 188.24 166.089 193.882 180.645 200.442C223.101 219.849 257.133 240.16 270.923 278.893C273.441 272.894 275.897 267.189 279.463 261.525C294.721 237.401 322.407 218.922 351.272 205.45C377.736 193.099 405.873 181.908 431.157 168.003C466.565 148.53 499.239 121.123 510.837 87.3207C519.792 61.6938 516.795 34.355 502.399 10.3474C500.325 6.8118 497.871 3.47717 495.442 0.0900677C496.243 0.598825 497.004 1.14668 497.721 1.73016C500.903 4.35363 506.045 10.6438 508.588 13.7671C525.342 34.3377 535.741 58.7615 534.956 83.4832C534.34 102.881 527.923 124.187 514.521 140.672C510.105 146.103 505.217 150.075 499.429 154.497C497.291 155.992 495.585 157.05 493.296 158.407C495.815 157.423 498.323 156.421 500.817 155.399C509.88 151.653 515.031 147.219 521.767 141.336C530.086 134.069 534.008 127.691 538.497 118.707C538.277 120.963 536.678 125.62 535.838 127.929C530.295 143.169 521.273 157.58 505.847 168.027C490.112 178.682 471.67 185.422 452.906 192.009C451.254 192.589 442.727 195.335 441.323 195.58C438.358 196.475 433.501 197.787 430.806 198.758C433.691 198.422 437.607 198.032 440.361 197.469C446.489 196.755 456.367 194.439 462.416 193.037C499.768 184.378 519.021 172.522 542 148.333C539.298 158.826 534.072 166.928 527.985 176.177C512.766 200.737 481.032 212.766 448.643 218.143C417.646 223.289 398.411 227.638 375.653 247.063C387.523 240.53 402.64 233.433 416.477 230.142C446.632 222.972 470.085 225.24 498.42 212.506C469.979 237.966 441.58 244.044 400.923 250.79C388.985 252.753 377.082 254.852 365.219 257.086C325.516 264.613 293.503 278.988 271.817 307C265.203 299.051 260.001 293.45 251.353 286.564C224.468 265.157 188.264 257.729 152.065 252.282C134.275 249.605 116.763 248.329 99.7739 242.973C84.6545 238.206 70.0862 231.655 57.6724 223.241C52.7471 219.902 48.2734 216.179 43.7543 212.529C50.08 215.217 56.4785 217.837 63.3144 219.627C82.696 224.705 102.817 224.575 122.5 228.87C140.204 232.733 152.949 238.223 168.334 245.746C166.404 243.845 158.841 238.926 156.314 237.317C142.133 228.281 125.133 222.977 107.413 220.244C98.338 218.844 90.0694 217.866 81.0107 215.947C70.3755 213.663 60.1484 210.313 50.5752 205.977C20.0135 192.249 8.93106 172.056 0 146.586C32.2718 181.888 57.9592 190.414 111.403 198.309C106.117 196.239 95.4993 193.625 89.6252 191.793C74.2569 186.998 60.9759 181.958 47.566 174.24C28.4731 163.25 14.409 149.417 8.06955 131.118C6.60862 126.901 5.92932 123.317 5.03228 119.029C6.86207 122.335 8.16567 125.574 10.4551 128.791C19.6023 141.649 32.1959 151.548 48.1863 158.756Z" fill="black"/>
<path d="M108.41 141.7C104.443 141.7 100.943 141.327 97.91 140.58C94.9233 139.833 92.7533 139.11 91.4 138.41L92.8 129.1V127C93.64 127.98 94.7833 129.03 96.23 130.15C97.6767 131.223 99.3333 132.133 101.2 132.88C103.113 133.627 105.097 134 107.15 134C109.203 134 110.743 133.417 111.77 132.25C112.843 131.083 113.38 129.1 113.38 126.3V103.2C113.38 101.707 113.217 100.657 112.89 100.05C112.563 99.3967 112.237 99.0467 111.91 99H125.63C125.303 99 124.977 99.3267 124.65 99.98C124.323 100.633 124.16 101.73 124.16 103.27V126.3C124.16 130.407 123.507 133.58 122.2 135.82C120.94 138.013 119.12 139.553 116.74 140.44C114.407 141.28 111.63 141.7 108.41 141.7Z" fill="black"/>
<path d="M149.695 141.7C146.008 141.7 142.928 141.327 140.455 140.58C138.028 139.787 136.091 138.667 134.645 137.22C133.198 135.727 132.171 133.93 131.565 131.83C130.958 129.73 130.655 127.35 130.655 124.69C130.655 119.417 132.125 115.24 135.065 112.16C138.005 109.08 142.508 107.54 148.575 107.54C152.121 107.54 154.991 108.03 157.185 109.01C159.425 109.99 161.128 111.297 162.295 112.93C163.461 114.563 164.255 116.383 164.675 118.39C165.141 120.35 165.375 122.333 165.375 124.34V127.63C165.375 127.49 164.721 127.35 163.415 127.21C162.155 127.023 160.008 126.93 156.975 126.93H140.735C140.735 129.497 141.505 131.433 143.045 132.74C144.631 134 147.198 134.63 150.745 134.63C153.731 134.63 156.391 134.28 158.725 133.58C161.105 132.833 162.831 132.133 163.905 131.48V133.58L164.605 138.9C163.718 139.507 162.015 140.137 159.495 140.79C156.975 141.397 153.708 141.7 149.695 141.7ZM143.325 120.91H155.435C155.435 119.883 155.201 118.88 154.735 117.9C154.315 116.92 153.615 116.127 152.635 115.52C151.655 114.867 150.301 114.54 148.575 114.54C146.848 114.54 145.448 114.797 144.375 115.31C143.348 115.823 142.578 116.453 142.065 117.2C141.598 117.947 141.365 118.717 141.365 119.51C141.365 119.977 141.505 120.327 141.785 120.56C142.065 120.793 142.578 120.91 143.325 120.91Z" fill="black"/>
<path d="M185.073 141.7C181.853 141.7 179.52 141.023 178.073 139.67C176.626 138.27 175.903 136.007 175.903 132.88V115.24H169.603V108.24C171.75 108.24 173.43 107.983 174.643 107.47C175.856 106.91 176.72 105.953 177.233 104.6C177.746 103.247 178.003 101.357 178.003 98.93H185.843V108.24H197.813C197.486 109.173 197.16 110.34 196.833 111.74C196.553 113.093 196.413 114.26 196.413 115.24H185.843V129.03C185.843 131.177 186.006 132.647 186.333 133.44C186.66 134.233 187.43 134.63 188.643 134.63C189.436 134.63 190.3 134.35 191.233 133.79C192.213 133.23 193.146 132.553 194.033 131.76C194.966 130.92 195.736 130.127 196.343 129.38V131.55L197.043 138.34C196.483 138.807 195.643 139.32 194.523 139.88C193.403 140.393 192.026 140.813 190.393 141.14C188.806 141.513 187.033 141.7 185.073 141.7Z" fill="black"/>
<path d="M225.296 141.7C217.27 141.7 211.25 139.973 207.236 136.52C203.27 133.02 201.286 127.513 201.286 120C201.286 115.66 202.103 111.88 203.736 108.66C205.37 105.393 207.96 102.85 211.506 101.03C215.053 99.21 219.65 98.3 225.296 98.3C229.73 98.3 233.416 98.5333 236.356 99C239.296 99.4667 241.28 99.9333 242.306 100.4V102.5L243.706 110.2C242.82 109.593 241.49 108.963 239.716 108.31C237.99 107.657 235.913 107.12 233.486 106.7C231.06 106.233 228.376 106 225.436 106C222.216 106 219.603 106.513 217.596 107.54C215.636 108.567 214.19 110.13 213.256 112.23C212.37 114.283 211.926 116.873 211.926 120C211.926 123.127 212.37 125.717 213.256 127.77C214.19 129.823 215.776 131.363 218.016 132.39C220.303 133.417 223.453 133.93 227.466 133.93C231.48 133.93 234.816 133.37 237.476 132.25C240.183 131.13 242.026 130.057 243.006 129.03V131.13L243.706 138.2C242.913 138.947 240.976 139.717 237.896 140.51C234.863 141.303 230.663 141.7 225.296 141.7Z" fill="black"/>
<path d="M249.555 141C249.881 141 250.185 140.673 250.465 140.02C250.791 139.367 250.955 138.293 250.955 136.8V96.9C250.955 95.4067 250.791 94.3567 250.465 93.75C250.185 93.0967 249.881 92.7467 249.555 92.7H260.895V111.81L260.755 112.72L260.895 112.86C261.035 112.533 261.478 111.95 262.225 111.11C262.971 110.27 264.045 109.477 265.445 108.73C266.845 107.937 268.571 107.54 270.625 107.54C274.965 107.54 278.278 108.777 280.565 111.25C282.898 113.723 284.065 117.597 284.065 122.87V136.8C284.065 138.293 284.205 139.367 284.485 140.02C284.811 140.673 285.138 141 285.465 141H272.725C273.051 141 273.355 140.673 273.635 140.02C273.961 139.367 274.125 138.293 274.125 136.8V123.08C274.125 120.887 273.891 119.183 273.425 117.97C272.958 116.71 272.305 115.823 271.465 115.31C270.671 114.797 269.738 114.54 268.665 114.54C267.358 114.54 266.098 114.867 264.885 115.52C263.718 116.127 262.761 117.107 262.015 118.46C261.268 119.767 260.895 121.517 260.895 123.71V136.8C260.895 138.293 261.035 139.367 261.315 140.02C261.641 140.673 261.968 141 262.295 141H249.555Z" fill="black"/>
<path d="M304.695 141.7C300.495 141.7 297.135 140.883 294.615 139.25C292.142 137.57 290.905 134.887 290.905 131.2C290.905 128.633 291.559 126.557 292.865 124.97C294.172 123.383 295.945 122.217 298.185 121.47C300.472 120.677 303.062 120.28 305.955 120.28C308.102 120.28 309.922 120.467 311.415 120.84C312.955 121.213 314.192 121.61 315.125 122.03C316.059 122.45 316.665 122.753 316.945 122.94C316.945 120.98 316.735 119.393 316.315 118.18C315.895 116.92 315.125 116.01 314.005 115.45C312.932 114.843 311.415 114.54 309.455 114.54C306.609 114.54 304.089 114.82 301.895 115.38C299.702 115.94 297.905 116.593 296.505 117.34C295.152 118.087 294.219 118.717 293.705 119.23V117.13L293.005 110.27C293.332 110.083 294.195 109.78 295.595 109.36C296.995 108.94 298.909 108.543 301.335 108.17C303.762 107.75 306.655 107.54 310.015 107.54C314.635 107.54 318.159 108.217 320.585 109.57C323.012 110.877 324.669 112.767 325.555 115.24C326.489 117.713 326.955 120.7 326.955 124.2V136.8C326.955 138.107 327.095 139.063 327.375 139.67C327.702 140.23 328.029 140.673 328.355 141H317.015V139.53L317.155 138.2L317.015 138.06C316.642 138.48 316.105 138.9 315.405 139.32C314.705 139.74 313.842 140.137 312.815 140.51C311.789 140.837 310.599 141.117 309.245 141.35C307.892 141.583 306.375 141.7 304.695 141.7ZM307.985 134.63C309.945 134.63 311.579 134.49 312.885 134.21C314.239 133.883 315.265 133.463 315.965 132.95C316.665 132.39 317.015 131.737 317.015 130.99C317.015 129.917 316.199 129.03 314.565 128.33C312.979 127.63 310.809 127.28 308.055 127.28C305.395 127.28 303.505 127.653 302.385 128.4C301.312 129.147 300.775 130.08 300.775 131.2C300.775 132.6 301.405 133.533 302.665 134C303.925 134.42 305.699 134.63 307.985 134.63Z" fill="black"/>
<path d="M334.115 141C334.442 141 334.745 140.673 335.025 140.02C335.352 139.367 335.515 138.293 335.515 136.8V113.14C335.515 111.647 335.352 110.597 335.025 109.99C334.745 109.337 334.442 108.987 334.115 108.94C336.168 108.94 338.268 108.8 340.415 108.52C342.562 108.193 344.242 107.867 345.455 107.54V111.81L345.315 112.72L345.455 112.86C345.595 112.533 346.038 111.95 346.785 111.11C347.532 110.27 348.605 109.477 350.005 108.73C351.405 107.937 353.132 107.54 355.185 107.54C359.525 107.54 362.838 108.777 365.125 111.25C367.458 113.723 368.625 117.597 368.625 122.87V136.8C368.625 138.293 368.765 139.367 369.045 140.02C369.372 140.673 369.698 141 370.025 141H357.285C357.612 141 357.915 140.673 358.195 140.02C358.522 139.367 358.685 138.293 358.685 136.8V123.08C358.685 120.887 358.452 119.183 357.985 117.97C357.519 116.71 356.865 115.823 356.025 115.31C355.232 114.797 354.298 114.54 353.225 114.54C351.918 114.54 350.658 114.867 349.445 115.52C348.278 116.127 347.322 117.107 346.575 118.46C345.828 119.767 345.455 121.517 345.455 123.71V136.8C345.455 138.293 345.595 139.367 345.875 140.02C346.202 140.673 346.528 141 346.855 141H334.115Z" fill="black"/>
<path d="M393.736 141.7C388.883 141.7 385.056 140.953 382.256 139.46C379.503 137.967 377.566 135.937 376.446 133.37C375.326 130.803 374.766 127.91 374.766 124.69C374.766 118.997 376.306 114.727 379.386 111.88C382.513 109.033 387.063 107.61 393.036 107.61C396.163 107.61 399.009 107.843 401.576 108.31C404.189 108.777 406.103 109.22 407.316 109.64V111.74L408.716 119.23C407.689 118.25 405.823 117.247 403.116 116.22C400.456 115.147 397.259 114.61 393.526 114.61C391.519 114.61 389.839 114.983 388.486 115.73C387.179 116.43 386.199 117.527 385.546 119.02C384.939 120.513 384.636 122.427 384.636 124.76C384.636 127.047 384.986 128.913 385.686 130.36C386.386 131.807 387.529 132.857 389.116 133.51C390.703 134.163 392.803 134.49 395.416 134.49C398.729 134.49 401.459 134.07 403.606 133.23C405.799 132.343 407.269 131.48 408.016 130.64V132.74L408.716 138.34C407.829 139.087 406.079 139.833 403.466 140.58C400.899 141.327 397.656 141.7 393.736 141.7Z" fill="black"/>
<path d="M432.634 141.7C428.947 141.7 425.867 141.327 423.394 140.58C420.967 139.787 419.031 138.667 417.584 137.22C416.137 135.727 415.111 133.93 414.504 131.83C413.897 129.73 413.594 127.35 413.594 124.69C413.594 119.417 415.064 115.24 418.004 112.16C420.944 109.08 425.447 107.54 431.514 107.54C435.061 107.54 437.931 108.03 440.124 109.01C442.364 109.99 444.067 111.297 445.234 112.93C446.401 114.563 447.194 116.383 447.614 118.39C448.081 120.35 448.314 122.333 448.314 124.34V127.63C448.314 127.49 447.661 127.35 446.354 127.21C445.094 127.023 442.947 126.93 439.914 126.93H423.674C423.674 129.497 424.444 131.433 425.984 132.74C427.571 134 430.137 134.63 433.684 134.63C436.671 134.63 439.331 134.28 441.664 133.58C444.044 132.833 445.771 132.133 446.844 131.48V133.58L447.544 138.9C446.657 139.507 444.954 140.137 442.434 140.79C439.914 141.397 436.647 141.7 432.634 141.7ZM426.264 120.91H438.374C438.374 119.883 438.141 118.88 437.674 117.9C437.254 116.92 436.554 116.127 435.574 115.52C434.594 114.867 433.241 114.54 431.514 114.54C429.787 114.54 428.387 114.797 427.314 115.31C426.287 115.823 425.517 116.453 425.004 117.2C424.537 117.947 424.304 118.717 424.304 119.51C424.304 119.977 424.444 120.327 424.724 120.56C425.004 120.793 425.517 120.91 426.264 120.91Z" fill="black"/>
</svg>
