<svg width="542" height="307" viewBox="0 0 542 307" fill="none" xmlns="http://www.w3.org/2000/svg">
<path d="M48.1863 158.756C44.1139 155.735 39.8698 151.618 36.4325 148.095C19.4075 130.866 9.44419 109.895 7.89019 88.0145C5.44419 56.6245 20.5168 23.4895 46.6391 0C26.9377 28.9977 22.4074 58.2191 33.7624 90.2109C48.3854 131.41 92.1852 160.078 136.509 181.36C150.84 188.24 166.089 193.882 180.645 200.442C223.101 219.849 257.133 240.16 270.923 278.893C273.441 272.894 275.897 267.189 279.463 261.525C294.721 237.401 322.407 218.922 351.272 205.45C377.736 193.099 405.873 181.908 431.157 168.003C466.565 148.53 499.239 121.123 510.837 87.3207C519.792 61.6938 516.795 34.355 502.399 10.3474C500.325 6.8118 497.871 3.47717 495.442 0.0900677C496.243 0.598825 497.004 1.14668 497.721 1.73016C500.903 4.35363 506.045 10.6438 508.588 13.7671C525.342 34.3377 535.741 58.7615 534.956 83.4832C534.34 102.881 527.923 124.187 514.521 140.672C510.105 146.103 505.217 150.075 499.429 154.497C497.291 155.992 495.585 157.05 493.296 158.407C495.815 157.423 498.323 156.421 500.817 155.399C509.88 151.653 515.031 147.219 521.767 141.336C530.086 134.069 534.008 127.691 538.497 118.707C538.277 120.963 536.678 125.62 535.838 127.929C530.295 143.169 521.273 157.58 505.847 168.027C490.112 178.682 471.67 185.422 452.906 192.009C451.254 192.589 442.727 195.335 441.323 195.58C438.358 196.475 433.501 197.787 430.806 198.758C433.691 198.422 437.607 198.032 440.361 197.469C446.489 196.755 456.367 194.439 462.416 193.037C499.768 184.378 519.021 172.522 542 148.333C539.298 158.826 534.072 166.928 527.985 176.177C512.766 200.737 481.032 212.766 448.643 218.143C417.646 223.289 398.411 227.638 375.653 247.063C387.523 240.53 402.64 233.433 416.477 230.142C446.632 222.972 470.085 225.24 498.42 212.506C469.979 237.966 441.58 244.044 400.923 250.79C388.985 252.753 377.082 254.852 365.219 257.086C325.516 264.613 293.503 278.988 271.817 307C265.203 299.051 260.001 293.45 251.353 286.564C224.468 265.157 188.264 257.729 152.065 252.282C134.275 249.605 116.763 248.329 99.7739 242.973C84.6545 238.206 70.0862 231.655 57.6724 223.241C52.7471 219.902 48.2734 216.179 43.7543 212.529C50.08 215.217 56.4785 217.837 63.3144 219.627C82.696 224.705 102.817 224.575 122.5 228.87C140.204 232.733 152.949 238.223 168.334 245.746C166.404 243.845 158.841 238.926 156.314 237.317C142.133 228.281 125.133 222.977 107.413 220.244C98.338 218.844 90.0694 217.866 81.0107 215.947C70.3755 213.663 60.1484 210.313 50.5752 205.977C20.0135 192.249 8.93106 172.056 0 146.586C32.2718 181.888 57.9592 190.414 111.403 198.309C106.117 196.239 95.4993 193.625 89.6252 191.793C74.2569 186.998 60.9759 181.958 47.566 174.24C28.4731 163.25 14.409 149.417 8.06955 131.118C6.60862 126.901 5.92932 123.317 5.03228 119.029C6.86207 122.335 8.16567 125.574 10.4551 128.791C19.6023 141.649 32.1959 151.548 48.1863 158.756Z" fill="black"/>
</svg>
